:SAMPLES-PER-SECOND 30
:FULLY-SPECIFIED
:DEGREES
364
root  -5.02897 40.9074 -3.2867 -1.01522 86.7594 -0.903889
RightUpLeg  2.33149 -9.63493 -8.17931
RightLeg  5.58904 -6.76313 3.14536
RightFoot  -3.86947 -0.112047 1.31065
RightToes  0.00048216 0.542163 -0.142577
Spine  4.02142 0.276015 -1.66357
Spine1  -0.917083 0.31078 -0.160998
HEad  1.43107 0.463606 -1.02423
LeftShoulder1  0.798677 -2.23618 -6.13966
LeftArm  -25.8206 14.7523 -5.0785
LeftForeArm  6.14896 -11.5667 -0.103027
LeftHand  -0.25398 0.0180481 5.50724
RightShoulder  0.629101 0.402009 8.68628
RightArm  -21.8174 -3.53864 1.51222
RightForeArm  -6.82903 5.72073 3.55756
RightHand  -3.38301 10.6 -24.6472
LeftUpLeg  4.12558 4.56861 0.247692
LeftLeg  1.79708 15.8552 -4.49096
LeftFoot  -5.47851 -0.0815681 2.23115
LeftToes  1.06244e-005 4.65856e-005 -8.18505e-006
365
root  -5.08952 40.9032 -3.2836 0.61957 86.8253 0.86003
RightUpLeg  2.38024 -9.63988 -8.2562
RightLeg  5.6489 -6.68656 3.07401
RightFoot  -4.03167 -0.114437 1.35954
RightToes  0.00048216 0.542163 -0.142577
Spine  4.23372 0.255848 -1.76141
Spine1  -0.928758 0.279068 -0.115842
HEad  2.29366 -0.0643901 -0.899418
LeftShoulder1  0.87144 -2.55314 -6.67426
LeftArm  -24.3313 14.6295 -5.55626
LeftForeArm  5.48418 -9.75128 -0.0994819
LeftHand  -0.25398 0.0180481 5.50724
RightShoulder  0.664297 0.50279 9.2158
RightArm  -21.4702 -3.56863 1.75225
RightForeArm  -5.74764 4.4517 3.37926
RightHand  -3.27834 10.5519 -23.9889
LeftUpLeg  4.12111 4.50553 0.130019
LeftLeg  1.86998 15.9078 -4.44821
LeftFoot  -5.43957 -0.0829631 2.25369
LeftToes  1.06244e-005 4.65856e-005 -8.18505e-006
366
root  -5.13664 40.8937 -3.2838 3.13628 86.8008 3.47658
RightUpLeg  2.38958 -9.67321 -8.39249
RightLeg  5.71864 -6.56618 2.98275
RightFoot  -4.28447 -0.122154 1.49594
RightToes  0.00048216 0.542163 -0.142577
Spine  4.40313 0.24968 -1.89548
Spine1  -0.842476 0.263712 -0.0843697
HEad  3.02745 -0.631905 -0.697816
LeftShoulder1  0.941028 -2.82555 -7.21847
LeftArm  -23.2746 14.8321 -5.74716
LeftForeArm  4.84388 -8.44918 -0.195909
LeftHand  -0.25398 0.0180481 5.50724
RightShoulder  0.685733 0.546402 9.60634
RightArm  -21.4538 -3.55669 2.04047
RightForeArm  -4.86438 3.1974 3.12165
RightHand  -3.17743 10.3949 -23.5057
LeftUpLeg  4.10485 4.43736 -0.0431016
LeftLeg  1.95794 16.0313 -4.42427
LeftFoot  -5.49637 -0.0850266 2.31121
LeftToes  1.06244e-005 4.65856e-005 -8.18505e-006
367
root  -5.17869 40.8824 -3.29809 6.03335 86.8142 6.49453
RightUpLeg  2.3922 -9.82604 -8.62576
RightLeg  5.88895 -6.44399 2.94848
RightFoot  -4.42769 -0.124356 1.55064
RightToes  0.00048216 0.542163 -0.142577
Spine  4.66978 0.182203 -1.94191
Spine1  -0.746296 0.205914 -0.129285
HEad  3.52438 -1.17543 -0.347715
LeftShoulder1  0.966745 -2.89425 -7.48899
LeftArm  -22.5717 15.14 -6.01767
LeftForeArm  3.98433 -7.45127 -0.253575
LeftHand  -0.25398 0.0180481 5.50724
RightShoulder  0.701955 0.589542 9.84914
RightArm  -21.4866 -3.60038 2.25494
RightForeArm  -3.97675 2.21586 2.88012
RightHand  -3.17613 10.4705 -23.3897
LeftUpLeg  4.08668 4.3545 -0.244459
LeftLeg  2.13905 16.0727 -4.40229
LeftFoot  -5.70107 -0.0825803 2.37423
LeftToes  1.06244e-005 4.65856e-005 -8.18505e-006
368
root  -5.2199 40.8591 -3.33271 7.51341 86.8374 8.20815
RightUpLeg  2.44105 -10.0775 -8.8795
RightLeg  6.28016 -6.1783 2.97625
RightFoot  -4.65365 -0.117966 1.47503
RightToes  0.00048216 0.542163 -0.142577
Spine  5.16391 0.0938189 -1.77127
Spine1  -0.6754 0.144542 -0.233058
HEad  3.83124 -1.70299 -0.0570775
LeftShoulder1  0.965534 -2.86573 -7.54216
LeftArm  -22.0868 15.4003 -6.30111
LeftForeArm  3.17494 -6.46729 -0.241323
LeftHand  -0.25398 0.0180481 5.50724
RightShoulder  0.71336 0.637502 9.93501
RightArm  -21.3065 -3.77203 2.26384
RightForeArm  -3.59664 1.73266 2.80409
RightHand  -3.29941 10.874 -23.6826
LeftUpLeg  3.98618 4.2818 -0.394721
LeftLeg  2.82215 16.0849 -4.21974
LeftFoot  -6.30639 -0.0636033 2.30821
LeftToes  1.06244e-005 4.65856e-005 -8.18505e-006
369
root  -5.25297 40.8154 -3.38365 6.01735 86.76 7.13087
RightUpLeg  2.63483 -10.2994 -9.05705
RightLeg  6.78498 -5.73687 2.99804
RightFoot  -5.09525 -0.126069 1.67922
RightToes  0.00048216 0.542163 -0.142577
Spine  5.86281 0.0829988 -1.43352
Spine1  -0.542843 0.15281 -0.271782
HEad  4.11195 -2.29772 0.0346419
LeftShoulder1  0.980163 -2.93471 -7.61539
LeftArm  -21.506 15.6071 -6.3183
LeftForeArm  2.46415 -5.39403 -0.238863
LeftHand  -0.25398 0.0180481 5.50724
RightShoulder  0.716934 0.666537 9.89697
RightArm  -21.1002 -3.98347 2.0163
RightForeArm  -3.90858 1.63153 2.83842
RightHand  -3.40047 11.1162 -24.0359
LeftUpLeg  3.82671 4.36065 -0.454125
LeftLeg  4.16053 16.1022 -3.72779
LeftFoot  -7.40725 -0.0276247 2.09956
LeftToes  1.06244e-005 4.65856e-005 -8.18505e-006
370
root  -5.26694 40.7603 -3.44672 2.62813 86.5505 4.36757
RightUpLeg  2.99852 -10.4797 -9.17755
RightLeg  7.36537 -5.20356 2.92042
RightFoot  -5.52779 -0.155608 2.32376
RightToes  0.00048216 0.542163 -0.142577
Spine  6.68804 0.150804 -1.14008
Spine1  -0.281056 0.205446 -0.139319
HEad  4.5142 -2.92534 0.0363745
LeftShoulder1  1.00834 -3.0774 -7.72762
LeftArm  -20.704 15.8601 -6.06557
LeftForeArm  1.77129 -4.39492 -0.329133
LeftHand  -0.25398 0.0180481 5.50724
RightShoulder  0.713921 0.682229 9.74525
RightArm  -21.1546 -4.03424 1.64628
RightForeArm  -4.18249 1.54226 2.80249
RightHand  -3.32057 10.756 -23.9913
LeftUpLeg  3.81737 4.84656 -0.496765
LeftLeg  5.76407 15.8665 -2.92689
LeftFoot  -8.68979 0.00952749 1.84892
LeftToes  1.06244e-005 4.65856e-005 -8.18505e-006
371
root  -5.25526 40.6991 -3.52624 0.289012 86.2344 2.79058
RightUpLeg  3.28596 -10.9553 -9.36033
RightLeg  8.42942 -4.38227 2.63484
RightFoot  -5.96511 -0.166686 2.67597
RightToes  0.00048216 0.542163 -0.142577
Spine  7.52249 0.234488 -1.05362
Spine1  0.100598 0.240643 0.092285
HEad  5.12757 -3.43712 0.0931296
LeftShoulder1  1.02177 -3.15484 -7.75513
LeftArm  -19.9021 16.1982 -5.73315
LeftForeArm  1.15174 -3.66023 -0.465888
LeftHand  -0.25398 0.0180481 5.50724
RightShoulder  0.705553 0.700071 9.44299
RightArm  -21.3657 -3.82988 1.37103
RightForeArm  -3.87046 1.31739 2.68826
RightHand  -3.12314 10.0971 -23.5426
LeftUpLeg  4.06309 5.39751 -0.658794
LeftLeg  7.21488 15.6112 -2.06164
LeftFoot  -9.84935 0.0389821 1.55384
LeftToes  1.06244e-005 4.65856e-005 -8.18505e-006
372
root  -5.21753 40.6076 -3.62523 0.846208 85.7012 4.05786
RightUpLeg  2.93517 -12.268 -9.63734
RightLeg  10.6059 -2.51171 1.93229
RightFoot  -6.85497 -0.14554 2.52314
RightToes  0.00048216 0.542163 -0.142577
Spine  8.19088 0.372791 -1.17835
Spine1  0.493228 0.330535 0.169923
HEad  6.04709 -3.82522 0.257193
LeftShoulder1  1.01764 -3.17013 -7.64743
LeftArm  -19.4127 16.5716 -5.42508
LeftForeArm  0.64204 -3.2414 -0.529144
LeftHand  -0.25398 0.0180481 5.50724
RightShoulder  0.695761 0.718279 9.10368
RightArm  -21.4633 -3.43997 1.19602
RightForeArm  -3.52238 1.16938 2.65419
RightHand  -3.01937 9.81785 -23.1943
LeftUpLeg  4.3276 5.91359 -0.97907
LeftLeg  8.62857 15.5309 -1.36718
LeftFoot  -11.0371 0.0631581 1.09795
LeftToes  1.06244e-005 4.65856e-005 -8.18505e-006
373
root  -5.16372 40.4549 -3.73319 3.67404 84.6684 7.38463
RightUpLeg  1.2933 -13.4224 -9.8083
RightLeg  14.3887 -0.196915 0.691048
RightFoot  -8.09571 -0.145436 3.27488
RightToes  0.00048216 0.542163 -0.142577
Spine  8.70382 0.699105 -1.51667
Spine1  0.643465 0.626913 -0.088032
HEad  7.28049 -4.20854 0.546376
LeftShoulder1  1.00201 -3.16908 -7.38848
LeftArm  -19.3826 17.0235 -5.20317
LeftForeArm  0.263039 -3.23292 -0.464349
LeftHand  -0.25398 0.0180481 5.50724
RightShoulder  0.695311 0.734705 9.02069
RightArm  -21.5055 -2.8839 0.937388
RightForeArm  -3.87424 1.32271 2.75963
RightHand  -3.08368 10.0414 -23.338
LeftUpLeg  4.313 6.65113 -1.40517
LeftLeg  10.3117 15.6858 -0.922666
LeftFoot  -12.5393 0.0801705 0.49374
LeftToes  1.06244e-005 4.65856e-005 -8.18505e-006
374
root  -5.10797 40.252 -3.83582 6.52703 83.0013 10.6067
RightUpLeg  -1.92416 -11.1194 -9.79933
RightLeg  20.2383 -1.08841 -0.796886
RightFoot  -8.50428 -0.200279 5.5858
RightToes  0.00048216 0.542163 -0.142577
Spine  9.38392 1.23168 -2.17238
Spine1  0.400921 1.1073 -0.533876
HEad  8.4915 -4.48035 0.900893
LeftShoulder1  0.964562 -3.03522 -7.08874
LeftArm  -19.8502 17.7352 -5.09761
LeftForeArm  0.363688 -3.92482 -0.278215
LeftHand  -0.25398 0.0180481 5.50724
RightShoulder  0.71095 0.757779 9.33123
RightArm  -21.853 -2.06424 0.665003
RightForeArm  -4.88653 1.93119 2.91511
RightHand  -3.21517 10.313 -23.8886
LeftUpLeg  4.11021 7.61378 -1.91047
LeftLeg  12.181 16.2514 -0.635286
LeftFoot  -14.21 0.0836561 -0.0696764
LeftToes  1.06244e-005 4.65856e-005 -8.18505e-006
375
root  -5.04129 40.0681 -3.93821 7.43743 81.0159 11.9806
RightUpLeg  -6.13426 -7.12636 -9.79882
RightLeg  27.8352 -4.51836 -2.82876
RightFoot  -6.79287 -0.333236 7.25084
RightToes  0.00048216 0.542163 -0.142577
Spine  10.4115 1.74617 -2.95377
Spine1  0.0828232 1.52998 -0.813704
HEad  9.12761 -4.31285 1.15243
LeftShoulder1  0.918155 -2.6776 -7.20318
LeftArm  -20.844 18.7922 -4.93812
LeftForeArm  1.38365 -5.57923 0.0144097
LeftHand  -0.25398 0.0180481 5.50724
RightShoulder  0.742618 0.81779 9.88975
RightArm  -22.6957 -1.10899 0.859189
RightForeArm  -6.53478 3.40144 3.12387
RightHand  -3.34356 10.3759 -24.7026
LeftUpLeg  4.20099 8.45944 -2.40806
LeftLeg  13.6336 17.2982 -0.369353
LeftFoot  -15.5262 0.0761093 -0.471781
LeftToes  1.06244e-005 4.65856e-005 -8.18505e-006
376
root  -4.92327 39.959 -4.04811 6.48043 79.2481 11.5926
RightUpLeg  -10.4819 -5.18386 -9.43658
RightLeg  35.397 -6.828 -5.4196
RightFoot  -3.45292 -0.432222 6.03534
RightToes  0.00048216 0.542163 -0.142577
Spine  11.4389 1.98905 -3.41214
Spine1  0.190206 1.70857 -0.891514
HEad  9.08113 -3.69354 1.20765
LeftShoulder1  0.920116 -2.32327 -8.23618
LeftArm  -22.2836 20.045 -4.57122
LeftForeArm  3.08448 -8.14318 0.34122
LeftHand  -0.25398 0.0180481 5.50724
RightShoulder  0.797669 0.973347 10.5934
RightArm  -23.744 -0.580544 1.96047
RightForeArm  -9.32452 6.29557 3.59264
RightHand  -3.55413 10.5281 -25.9351
LeftUpLeg  4.82059 8.90197 -2.75917
LeftLeg  14.2402 18.5807 -0.115582
LeftFoot  -16.2695 0.0640273 -0.781028
LeftToes  1.06244e-005 4.65856e-005 -8.18505e-006
